<?xml version="1.0" standalone="no"?>
<!DOCTYPE svg PUBLIC "-//W3C//DTD SVG 20010904//EN"
 "http://www.w3.org/TR/2001/REC-SVG-20010904/DTD/svg10.dtd">
<svg version="1.0" xmlns="http://www.w3.org/2000/svg"
 width="260.000000pt" height="260.000000pt" viewBox="0 0 260.000000 260.000000"
 preserveAspectRatio="xMidYMid meet">
<metadata>
Created by potrace 1.11, written by Peter Selinger 2001-2013
</metadata>
<g transform="translate(0.000000,260.000000) scale(0.100000,-0.100000)"
fill="#000000" stroke="none">
<path d="M210 2310 l0 -60 258 -2 258 -3 -278 -380 -278 -380 0 -57 0 -58 365
0 365 0 0 60 0 60 -280 2 -280 3 275 379 275 379 0 58 0 59 -340 0 -340 0 0
-60z"/>
<path d="M542 1195 c-94 -21 -160 -55 -230 -119 -102 -96 -152 -220 -152 -385
0 -166 47 -287 151 -386 224 -214 644 -162 773 96 40 81 37 89 -33 89 l-59 0
-26 -45 c-65 -110 -154 -157 -296 -157 -225 -1 -363 135 -377 372 -17 283 168
463 439 429 107 -13 169 -55 232 -156 26 -43 26 -43 87 -43 l61 0 -7 28 c-11
46 -68 132 -117 177 -109 98 -279 136 -446 100z"/>
<path d="M1700 690 l0 -500 65 0 65 0 0 168 0 168 73 72 c40 39 75 72 78 72 4
0 80 -108 170 -240 l163 -240 79 0 c60 0 76 3 71 13 -4 6 -95 137 -202 290
l-194 278 119 125 c65 69 153 163 196 210 l79 84 -85 0 -84 0 -229 -250 -229
-251 -3 251 -2 250 -65 0 -65 0 0 -500z"/>
<path d="M1160 570 l0 -60 225 0 225 0 0 60 0 60 -225 0 -225 0 0 -60z"/>
</g>
</svg>
